# AST/ASF file generated using VICON BodyLanguage
# -----------------------------------------------
:version 1.10
:name VICON
:units
  mass 1.0
  length 0.45
  angle deg
:documentation
   .ast/.asf automatically generated from VICON data using
   VICON BodyBuilder and BodyLanguage model FoxedUp or BRILLIANT.MOD
:root
   order TX TY TZ RX RY RZ
   axis XYZ
   position 0 0 0  
   orientation 0 0 0 
:bonedata
  begin
     id 1 
     name lhipjoint
     direction 0.646657 -0.683706 0.338203 
     length 2.4948 
     axis 0 0 0  XYZ
  end
  begin
     id 2 
     name lfemur
     direction 0.34202 -0.939693 0  
     length 6.79491  
     axis 0 0 20  XYZ
    dof rx ry rz
    limits (-160.0 20.0)
           (-70.0 70.0)
           (-60.0 70.0)
  end
  begin
     id 3 
     name ltibia
     direction 0.34202 -0.939693 0   
     length 7.56807   
     axis 0 0 20   XYZ
    dof rx
    limits (-10.0 170.0)
  end
  begin
     id 4 
     name lfoot
     direction 0.0679796 -0.186772 0.980048   
     length 2.53018   
     axis -90 7.62852e-016 20   XYZ
    dof rx rz
    limits (-45.0 90.0)
           (-70.0 20.0)
  end
  begin
     id 5 
     name ltoes
     direction 1.53625e-011 -4.21881e-011 1   
     length 1.26912   
     axis -90 7.62852e-016 20   XYZ
    dof rx
    limits (-90.0 20.0)
  end
  begin
     id 6 
     name rhipjoint
     direction -0.618868 -0.704065 0.348274   
     length 2.42265  
     axis 0 0 0  XYZ 
  end
  begin
     id 7 
     name rfemur
     direction -0.34202 -0.939693 0   
     length 6.73814   
     axis 0 0 -20   XYZ
    dof rx ry rz
    limits (-160.0 20.0)
           (-70.0 70.0)
           (-70.0 60.0)
  end
  begin
     id 8 
     name rtibia
     direction -0.34202 -0.939693 0   
     length 7.66799   
     axis 0 0 -20   XYZ
    dof rx
    limits (-10.0 170.0)
 end
 begin
     id 9 
     name rfoot
     direction -0.0727352 -0.199838 0.977125   
     length 2.57224  
     axis -90 -7.62852e-016 -20   XYZ
    dof rx rz
    limits (-45.0 90.0)
           (-20.0 70.0)
  end
  begin
     id 10 
     name rtoes
     direction -1.53501e-011 -4.21858e-011 1   
     length 1.28858   
     axis -90 -7.62852e-016 -20   XYZ
    dof rx
    limits (-90.0 20.0)
  end
  begin
     id 11 
     name lowerback
     direction -0.0172471 0.995767 -0.0902851   
     length 2.20206   
     axis 0 0 0   XYZ
    dof rx ry rz
    limits (-20.0 45.0)
           (-30.0 30.0)
           (-30.0 30.0)
  end
  begin
     id 12 
     name upperback
     direction -0.000110737 0.999714 0.0239043   
     length 2.19523   
     axis 0 0 0   XYZ
    dof rx ry rz
    limits (-20.0 45.0)
           (-30.0 30.0)
           (-30.0 30.0)
  end
  begin
     id 13 
     name thorax
     direction 0.00704869 0.997783 0.0661741   
     length 2.21977   
     axis 0 0 0   XYZ
    dof rx ry rz
    limits (-20.0 45.0)
           (-30.0 30.0)
           (-30.0 30.0)
  end
  begin
     id 14 
     name lowerneck
     direction -0.00407501 0.995527 0.0943846   
     length 1.83142   
     axis 0 0 0   XYZ
    dof rx ry rz
    limits (-20.0 45.0)
           (-30.0 30.0)
           (-30.0 30.0)
  end
  begin
     id 15 
     name upperneck
     direction 0.0640586 0.986486 -0.150807   
     length 1.84616   
     axis 0 0 0   XYZ
    dof rx ry rz
    limits (-20.0 45.0)
           (-30.0 30.0)
           (-30.0 30.0)
  end
  begin
     id 16
     name head
     direction 0.0188017 0.99791 -0.0618239  
     length 1.85932  
     axis 0 0 0   XYZ
    dof rx ry rz
    limits (-20.0 45.0)
           (-30.0 30.0)
           (-30.0 30.0)
  end
  begin
     id 17 
     name lclavicle
     direction 0.976074 0.206905 0.066852  
     length 3.81043  
     axis 0 0 0   XYZ
    dof ry rz
    limits (-20.0 10.0)
           (0.0 20.0)
  end
  begin
     id 18 
     name lhumerus
     direction 1 -4.48971e-011 1.86916e-027   
     length 5.37587   
     axis 180 -30 -90   XYZ
    dof rx ry rz
    limits (-60.0 90.0)
           (-90.0 90.0)
           (-90.0 90.0)
  end
  begin
     id 19
     name lradius
     direction 1 -4.48968e-011 1.69187e-027   
     length 3.35977   
     axis 180 -30 -90   XYZ
    dof rx
    limits (-10.0 170.0)
  end
  begin
     id 20
     name lwrist
     direction 1 -4.48968e-011 5.8978e-027   
     length 1.67988   
     axis -3.27506e-015 90 90   XYZ
    dof ry
    limits (-180.0 0.0)
 end
  begin
     id 21 
     name lhand
     direction 1 -4.49028e-011 1.18071e-026   
     length 0.561859   
     axis -7.52654e-015 90 90   XYZ
    dof rx rz
    limits (-90.0 90.0)
           (-45.0 45.0)
  end
  begin
     id 22 
     name lfingers
     direction 1 -4.48927e-011 2.35758e-026   
     length 0.452985   
     axis -1.50534e-014 90 90   XYZ
    dof rx
    limits (0.0 90.0)
  end
  begin
     id 23
     name lthumb
     direction 0.707107 -6.34898e-011 0.707107   
     length 0.650399   
     axis -90 45 5.69224e-014   XYZ
    dof rx rz
    limits (-45.0 45.0)
           (-45.0 45.0)
  end
  begin
     id 24 
     name rclavicle
     direction -0.988403 0.151789 0.00439714   
     length 3.6942  
     axis 0 0 0   XYZ 
    dof ry rz
    limits (-10.0 20.0)
           (-20.0 0.0)
  end
  begin
     id 25 
     name rhumerus
     direction -1 -4.48978e-011 1.62495e-027  
     length 5.22819   
     axis 180 30 90   XYZ
    dof rx ry rz
    limits (-90.0 60.0)
           (-90.0 90.0)
           (-90.0 90.0)
  end
  begin
     id 26 
     name rradius
     direction -1 -4.48961e-011 3.47796e-027   
     length 3.40764   
     axis 180 30 90   XYZ
    dof rx
    limits (-10.0 170.0)
  end
  begin
     id 27 
     name rwrist
     direction -1 -4.48949e-011 5.89602e-027   
     length 1.70382   
     axis -3.27506e-015 -90 -90   XYZ
    dof ry
    limits (-180.0 0.0)
  end
  begin
     id 28
     name rhand
     direction -1 -4.48977e-011 1.17973e-026   
     length 0.583255   
     axis -7.52654e-015 -90 -90   XYZ
    dof rx rz
    limits (-90.0 90.0)
           (-45.0 45.0)
  end
  begin
     id 29
     name rfingers
     direction -1 -4.49099e-011 2.36408e-026   
     length 0.470235   
     axis -1.50534e-014 -90 -90   XYZ
    dof rx
    limits (0.0 90.0)
  end
  begin
     id 30
     name rthumb
     direction -0.707107 -6.35011e-011 0.707107   
     length 0.675167   
     axis -90 -45 -5.69224e-014   XYZ
    dof rx rz
    limits (-45.0 45.0)
           (-45.0 45.0)
  end
:hierarchy
  begin
    root lhipjoint rhipjoint lowerback
    lhipjoint lfemur
    lfemur ltibia
    ltibia lfoot
    lfoot ltoes
    rhipjoint rfemur
    rfemur rtibia
    rtibia rfoot
    rfoot rtoes
    lowerback upperback
    upperback thorax
    thorax lowerneck lclavicle rclavicle
    lowerneck upperneck
    upperneck head
    lclavicle lhumerus
    lhumerus lradius
    lradius lwrist
    lwrist lhand lthumb
    lhand lfingers
    rclavicle rhumerus
    rhumerus rradius
    rradius rwrist
    rwrist rhand rthumb
    rhand rfingers
  end

#!OML:ASF G:\JayActor3\Patient Classification 1\Patient 1\Session 2\male.ASF
:FULLY-SPECIFIED
:DEGREES
1848
root -26.6907 16.7528 -5.05146 1933.49 86.7851 -1669.99
lowerback -0.783807 -0.71932 -3.68422
upperback 6.49646 -0.584465 -0.811816
thorax 7.25563 -0.413835 1.17826
lowerneck -10.6282 0.360333 0.054234
upperneck 25.7451 1.81998 -2.65362
head 9.94001 0.77092 -0.689113
rclavicle -2.04251e-014 -6.36111e-015
rhumerus -27.2658 -12.1184 -84.6013
rradius 21.3028
rwrist 0.856767
rhand -21.251 5.89515
rfingers 7.12502
rthumb 5.13201 -24.0227
lclavicle -2.04251e-014 -6.36111e-015
lhumerus -27.3495 13.5733 81.8285
lradius 15.1198
lwrist -3.02066
lhand -19.4827 15.3064
lfingers 7.12502
lthumb 6.83916 45.1759
rfemur -32.3592 3.49753 20.7263
rtibia 35.6234
rfoot -13.9995 -13.2534
rtoes 18.6245
lfemur 20.1488 6.7164 -23.5715
ltibia -1.59028e-014
lfoot -3.58192 -1.04399
ltoes -13.1268
1849
root -26.5875 16.7665 -5.03246 1936.81 86.5943 -1666.67
lowerback -0.828013 -0.730801 -3.63343
upperback 6.47321 -0.607352 -0.737622
thorax 7.25714 -0.425272 1.22559
lowerneck -10.6072 0.268986 -0.00122526
upperneck 25.8395 1.67027 -2.49567
head 9.96548 0.715922 -0.641591
rclavicle -1.09332e-015 -5.46658e-015
rhumerus -27.2998 -12.0076 -84.5649
rradius 21.4583
rwrist 0.653772
rhand -21.26 5.86478
rfingers 7.12502
rthumb 5.12327 -24.0533
lclavicle -1.09332e-015 -5.46658e-015
lhumerus -27.8152 13.0784 81.8669
lradius 15.4067
lwrist -2.3529
lhand -19.388 15.351
lfingers 7.12502
lthumb 6.9306 45.2176
rfemur -31.9754 3.52085 20.7778
rtibia 35.7016
rfoot -14.1352 -13.4141
rtoes 19.3573
lfemur 20.4271 6.58144 -23.3724
ltibia 4.77083e-014
lfoot -2.82317 -1.06862
ltoes -13.4108
1850
root -26.4854 16.7807 -5.01301 1940.1 86.4086 -1663.38
lowerback -0.845266 -0.741684 -3.55932
upperback 6.43819 -0.632851 -0.65733
thorax 7.23 -0.436438 1.26644
lowerneck -10.5883 0.174121 -0.0575744
upperneck 25.9483 1.51478 -2.33003
head 9.99679 0.659287 -0.591815
rclavicle -9.34288e-015 -1.88845e-014
rhumerus -27.3471 -11.841 -84.5492
rradius 21.651
rwrist 0.393889
rhand -21.2863 5.82824
rfingers 7.12502
rthumb 5.0979 -24.0904
lclavicle -9.34288e-015 -1.88845e-014
lhumerus -28.2643 12.6063 81.9089
lradius 15.6716
lwrist -1.75788
lhand -19.2931 15.4214
lfingers 7.12502
lthumb 7.0222 45.2849
rfemur -31.5642 3.54195 20.863
rtibia 35.7374
rfoot -14.2955 -13.5852
rtoes 20.0303
lfemur 20.6972 6.4436 -23.1453
ltibia -2.8625e-014
lfoot -2.01778 -1.04269
ltoes -13.5995
1851
root -26.3846 16.7947 -4.99335 1943.27 86.2308 -1660.21
lowerback -0.843331 -0.75184 -3.46418
upperback 6.39325 -0.66002 -0.572338
thorax 7.18073 -0.447076 1.30059
lowerneck -10.576 0.0769512 -0.118604
upperneck 26.0659 1.35483 -2.15508
head 10.0329 0.601301 -0.538399
rclavicle -5.2181e-016 1.54058e-015
rhumerus -27.3957 -11.6264 -84.5517
rradius 21.869
rwrist 0.097189
rhand -21.3174 5.78034
rfingers 7.12502
rthumb 5.06792 -24.1391
lclavicle -5.2181e-016 1.54058e-015
lhumerus -28.689 12.1833 81.948
lradius 15.9106
lwrist -1.26247
lhand -19.2069 15.549
lfingers 7.12502
lthumb 7.1054 45.4097
rfemur -31.1419 3.55114 20.9797
rtibia 35.7398
rfoot -14.4622 -13.7559
rtoes 20.6287
lfemur 20.7855 6.31728 -22.8963
ltibia 0.303159
lfoot -1.29075 -1.0037
ltoes -13.692
1852
root -26.2853 16.8088 -4.9736 1946.3 86.062 -1657.19
lowerback -0.833459 -0.762976 -3.35417
upperback 6.34377 -0.690035 -0.481211
thorax 7.12192 -0.458384 1.33272
lowerneck -10.5726 -0.0191569 -0.185048
upperneck 26.1826 1.19542 -1.97486
head 10.0708 0.543579 -0.48206
rclavicle 7.23079e-015 -5.06901e-015
rhumerus -27.4293 -11.3666 -84.5699
rradius 22.1018
rwrist -0.217077
rhand -21.3442 5.72191
rfingers 7.12502
rthumb 5.04196 -24.1981
lclavicle 7.23079e-015 -5.06901e-015
lhumerus -29.0797 11.8248 81.9852
lradius 16.1264
lwrist -0.863022
lhand -19.1249 15.6994
lfingers 7.12502
lthumb 7.18454 45.5574
rfemur -30.719 3.53925 21.1257
rtibia 35.717
rfoot -14.6267 -13.9119
rtoes 21.1493
lfemur 18.0918 6.28951 -22.6071
ltibia 5.67512
lfoot -2.66823 -1.73837
ltoes -13.6945
1853
root -26.1879 16.8222 -4.954 1949.13 85.9009 -1654.38
lowerback -0.823488 -0.773117 -3.23027
upperback 6.29011 -0.71949 -0.388896
thorax 7.05831 -0.468656 1.35835
lowerneck -10.5724 -0.114435 -0.250562
upperneck 26.2878 1.03481 -1.79211
head 10.1057 0.485588 -0.425076
rclavicle 2.66496e-015 -7.97623e-015
rhumerus -27.441 -11.0851 -84.5996
rradius 22.3361
rwrist -0.527527
rhand -21.3663 5.66601
rfingers 7.12502
rthumb 5.02065 -24.2545
lclavicle 2.66496e-015 -7.97623e-015
lhumerus -29.4326 11.5286 82.0161
lradius 16.318
lwrist -0.555909
lhand -19.0583 15.8549
lfingers 7.12502
lthumb 7.24885 45.7107
rfemur -30.3089 3.5027 21.2923
rtibia 35.678
rfoot -14.7883 -14.0386
rtoes 21.602
lfemur 16.7989 6.2347 -22.3113
ltibia 8.42375
lfoot -2.86192 -2.03789
ltoes -13.5833
1854
root -26.0923 16.8348 -4.93489 1951.71 85.7452 -1651.83
lowerback -0.822441 -0.78397 -3.09968
upperback 6.23875 -0.749562 -0.295926
thorax 7.00234 -0.479023 1.38072
lowerneck -10.5795 -0.205405 -0.316222
upperneck 26.3733 0.879028 -1.61295
head 10.1355 0.429083 -0.368743
rclavicle 1.3213e-014 1.77664e-015
rhumerus -27.4181 -10.7904 -84.6351
rradius 22.5639
rwrist -0.813698
rhand -21.3762 5.63217
rfingers 7.12502
rthumb 5.01112 -24.2886
lclavicle 1.3213e-014 1.77664e-015
lhumerus -29.7442 11.2877 82.0504
lradius 16.4995
lwrist -0.322075
lhand -19.0049 15.9805
lfingers 7.12502
lthumb 7.30041 45.8346
rfemur -29.9143 3.43337 21.4698
rtibia 35.6285
rfoot -14.9441 -14.1235
rtoes 21.9915
lfemur 15.6937 6.19047 -22.01
ltibia 10.7794
lfoot -2.82688 -2.25067
ltoes -13.4472
1855
root -25.9981 16.8467 -4.91661 1953.99 85.6015 -1649.58
lowerback -0.836559 -0.7931 -2.95799
upperback 6.19337 -0.776549 -0.207182
thorax 6.9612 -0.487312 1.39242
lowerneck -10.5911 -0.290845 -0.375291
upperneck 26.4322 0.729133 -1.44179
head 10.157 0.374616 -0.315684
rclavicle 1.54058e-015 -5.34234e-015
rhumerus -27.3549 -10.4892 -84.6805
rradius 22.7772
rwrist -1.06392
rhand -21.3929 5.61114
rfingers 7.12502
rthumb 4.99502 -24.31
lclavicle 1.54058e-015 -5.34234e-015
lhumerus -30.0151 11.0833 82.0894
lradius 16.6786
lwrist -0.134643
lhand -18.9633 16.0729
lfingers 7.12502
lthumb 7.34062 45.9256
rfemur -29.5344 3.32997 21.6541
rtibia 35.5736
rfoot -15.0975 -14.1545
rtoes 22.3093
lfemur 14.6755 6.32424 -21.6631
ltibia 12.9427
lfoot -2.58552 -2.55931
ltoes -13.2409
1856
root -25.9052 16.8581 -4.89913 1955.99 85.4644 -1647.62
lowerback -0.868275 -0.802187 -2.81062
upperback 6.15609 -0.802273 -0.124365
thorax 6.93872 -0.494693 1.39454
lowerneck -10.6028 -0.369655 -0.424073
upperneck 26.4595 0.586783 -1.28261
head 10.1675 0.3228 -0.267785
rclavicle -1.64867e-014 -1.65488e-014
rhumerus -27.2509 -10.1807 -84.7371
rradius 22.9749
rwrist -1.27045
rhand -21.4253 5.61654
rfingers 7.12502
rthumb 4.9637 -24.3053
lclavicle -1.64867e-014 -1.65488e-014
lhumerus -30.249 10.8855 82.1433
lradius 16.8691
lwrist 0.0441007
lhand -18.9361 16.1196
lfingers 7.12502
lthumb 7.36678 45.9713
rfemur -29.1668 3.19702 21.8363
rtibia 35.514
rfoot -15.256 -14.1355
rtoes 22.5699
lfemur 13.6997 6.5038 -21.3123
ltibia 14.9913
lfoot -2.21369 -2.85149
ltoes -12.9238
1857
root -25.8136 16.8688 -4.88236 1957.78 85.33 -1645.88
lowerback -0.913254 -0.811103 -2.65718
upperback 6.1234 -0.826976 -0.0487113
thorax 6.92859 -0.501135 1.38564
lowerneck -10.6099 -0.442324 -0.461344
upperneck 26.4594 0.451348 -1.13404
head 10.1675 0.273733 -0.224856
rclavicle 1.1281e-014 -1.51076e-014
rhumerus -27.1149 -9.86577 -84.804
rradius 23.159
rwrist -1.4413
rhand -21.4714 5.64251
rfingers 7.12502
rthumb 4.9192 -24.2804
lclavicle 1.1281e-014 -1.51076e-014
lhumerus -30.4522 10.6753 82.2168
lradius 17.0777
lwrist 0.237245
lhand -18.9152 16.1829
lfingers 7.12502
lthumb 7.38704 46.0339
rfemur -28.8082 3.03463 22.0144
rtibia 35.4486
rfoot -15.4269 -14.0685
rtoes 22.7743
lfemur 12.7466 6.71332 -20.9612
ltibia 16.9651
lfoot -1.73268 -3.12251
ltoes -12.5274
1858
root -25.7233 16.879 -4.86588 1959.39 85.196 -1644.32
lowerback -0.964746 -0.819224 -2.50461
upperback 6.09529 -0.849928 0.0227026
thorax 6.92703 -0.506684 1.37276
lowerneck -10.604 -0.511832 -0.490705
upperneck 26.4314 0.318888 -0.992971
head 10.1552 0.22569 -0.185633
rclavicle 4.42296e-015 -2.68359e-015
rhumerus -26.9543 -9.53765 -84.879
rradius 23.3387
rwrist -1.59682
rhand -21.5266 5.67066
rfingers 7.12502
rthumb 4.86591 -24.2535
lclavicle 4.42296e-015 -2.68359e-015
lhumerus -30.6293 10.4388 82.3169
lradius 17.3106
lwrist 0.466463
lhand -18.8963 16.2443
lfingers 7.12502
lthumb 7.40528 46.0947
rfemur -28.4498 2.85378 22.1883
rtibia 35.3755
rfoot -15.616 -13.9658
rtoes 22.9383
lfemur 11.8095 6.93663 -20.609
ltibia 18.8917
lfoot -1.15558 -3.36771
ltoes -12.0945
